<svg xmlns="http://www.w3.org/2000/svg" xmlns:xlink="http://www.w3.org/1999/xlink">

  <symbol>
    <g id="hpa-profile">
      <path
        d="M21.7768 24.655H4.23599C2.48249 24.655 1.12916 23.332 1.35899 21.5937L1.49199 20.5798C1.73349 19.1798 3.01449 18.299 4.40516 17.9968L12.916 16.5H13.084L21.5948 17.9968C23.0088 18.3235 24.2665 19.1553 24.508 20.5798L24.641 21.6065C24.8708 23.3448 23.5175 24.6667 21.764 24.6667L21.7768 24.655ZM18.8333 7.16667C18.8333 8.71376 18.2187 10.1975 17.1248 11.2915C16.0308 12.3854 14.5471 13 13 13C11.4529 13 9.96916 12.3854 8.8752 11.2915C7.78124 10.1975 7.16666 8.71376 7.16666 7.16667C7.16666 5.61957 7.78124 4.13584 8.8752 3.04188C9.96916 1.94791 11.4529 1.33333 13 1.33333C14.5471 1.33333 16.0308 1.94791 17.1248 3.04188C18.2187 4.13584 18.8333 5.61957 18.8333 7.16667Z"
        stroke="#999490" stroke-linecap="round" stroke-linejoin="round" />
    </g>
    <g id="hpa-cart">
      <path
        d="M120.07,47.15c-.6-7.14-6.58-12.62-13.74-12.59h-6.32c0-15.18-12.31-27.49-27.49-27.49s-27.49,12.31-27.49,27.49h-6.38c-7.16-.03-13.14,5.45-13.74,12.59l-6.49,76.97c-.59,7.57,5.06,14.18,12.63,14.78.37.03.74.04,1.11.04h80.68c7.59.02,13.76-6.11,13.79-13.7,0-.38-.01-.76-.04-1.14l-6.52-76.94ZM72.51,12.56c12.15,0,21.99,9.85,21.99,21.99h-43.98c0-12.15,9.85-21.99,21.99-21.99ZM112.84,133.52H32.19c-4.55.01-8.26-3.67-8.27-8.22,0-.22,0-.44.02-.66l6.46-76.97c.36-4.28,3.95-7.57,8.25-7.56h6.38v16.49h-2.75c-1.52,0-2.75,1.23-2.75,2.75s1.23,2.75,2.75,2.75h11c1.52,0,2.75-1.23,2.75-2.75s-1.23-2.75-2.75-2.75h-2.75v-16.55h43.98v16.49h-2.75c-1.52,0-2.75,1.23-2.75,2.75s1.23,2.75,2.75,2.75h11c1.52,0,2.75-1.23,2.75-2.75s-1.23-2.75-2.75-2.75h-2.75v-16.49h6.38c4.3-.01,7.89,3.28,8.25,7.56l6.46,76.97c.38,4.54-2.99,8.53-7.53,8.91-.24.02-.48.03-.72.03Z" stroke="#999490" stroke-linecap="round" stroke-linejoin="round" fill="#999490"/>
    </g>

  </symbol>
</svg>
