<svg width="62" height="39" viewBox="0 0 62 39" fill="none" xmlns="http://www.w3.org/2000/svg">
<g clip-path="url(#clip0_1755_19)">
<path d="M0.429809 7.51562C0.322357 7.51562 0.214905 7.51562 0.107452 7.41406C0.107452 7.41406 0 7.21094 0 7.10938V0.40625C0 0.304688 0 0.203125 0.107452 0.101562C0.107452 0.101562 0.322357 0 0.429809 0H7.52166C7.62912 0 7.73657 0 7.84402 0.101562C7.84402 0.101562 7.95147 0.304688 7.95147 0.40625C7.95147 0.507812 7.95147 0.609375 7.84402 0.710938C7.84402 0.710938 7.62912 0.8125 7.52166 0.8125H0.859619V7.10938C0.859619 7.21094 0.859619 7.3125 0.752166 7.41406C0.752166 7.41406 0.537262 7.51562 0.429809 7.51562ZM61.5702 7.51562C61.4627 7.51562 61.3553 7.51562 61.2478 7.41406C61.2478 7.41406 61.1404 7.21094 61.1404 7.10938V0.8125H54.4783C54.3709 0.8125 54.2634 0.8125 54.156 0.710938C54.156 0.710938 54.0485 0.507812 54.0485 0.40625C54.0485 0.304688 54.0485 0.203125 54.156 0.101562C54.156 0.101562 54.3709 0 54.4783 0H61.5702C61.6776 0 61.7851 0 61.8925 0.101562C61.8925 0.101562 62 0.304688 62 0.40625V7.10938C62 7.21094 62 7.3125 61.8925 7.41406C61.8925 7.41406 61.6776 7.51562 61.5702 7.51562ZM7.52166 39H0.429809C0.322357 39 0.214905 39 0.107452 38.8984C0.107452 38.8984 0 38.6953 0 38.5938V31.8906C0 31.7891 0 31.6875 0.107452 31.5859C0.107452 31.5859 0.322357 31.4844 0.429809 31.4844C0.537262 31.4844 0.644714 31.4844 0.752166 31.5859C0.752166 31.5859 0.859619 31.7891 0.859619 31.8906V38.1875H7.52166C7.62912 38.1875 7.73657 38.1875 7.84402 38.2891C7.84402 38.2891 7.95147 38.4922 7.95147 38.5938C7.95147 38.6953 7.95147 38.7969 7.84402 38.8984C7.84402 38.8984 7.62912 39 7.52166 39ZM61.5702 39H54.4783C54.3709 39 54.2634 39 54.156 38.8984C54.156 38.8984 54.0485 38.6953 54.0485 38.5938C54.0485 38.4922 54.0485 38.3906 54.156 38.2891C54.156 38.2891 54.3709 38.1875 54.4783 38.1875H61.1404V31.8906C61.1404 31.7891 61.1404 31.6875 61.2478 31.5859C61.2478 31.5859 61.4627 31.4844 61.5702 31.4844C61.6776 31.4844 61.7851 31.4844 61.8925 31.5859C61.8925 31.5859 62 31.7891 62 31.8906V38.5938C62 38.6953 62 38.7969 61.8925 38.8984C61.8925 38.8984 61.6776 39 61.5702 39ZM13.9688 4.46875H16.1178V34.3281H13.9688V4.46875ZM10.8527 4.46875H12.357V34.3281H10.8527V4.46875ZM28.0451 4.46875H30.6239V34.3281H28.0451V4.46875ZM22.2426 4.46875H23.4246V34.3281H22.2426V4.46875ZM24.6066 4.46875H26.3258V34.3281H24.6066V4.46875ZM5.80243 4.46875H8.70364V34.3281H5.80243V4.46875ZM17.8371 4.46875H20.7383V34.3281H17.8371V4.46875ZM49.4281 34.3281H47.279V4.46875H49.4281V34.3281ZM52.6516 34.3281H51.1473V4.46875H52.6516V34.3281ZM40.9393 34.3281H39.7574V4.46875H40.9393V34.3281ZM34.1698 34.3281H32.773V4.46875H34.1698V34.3281ZM38.1456 34.3281H36.4263V4.46875H38.1456V34.3281ZM56.9497 34.3281H54.4783V4.46875H56.9497V34.3281ZM45.3449 34.3281H42.4437V4.46875H45.3449V34.3281Z" fill="#868181"/>
<path d="M61.1404 18.0781V20.8203H0.859619V18.0781H61.1404Z" fill="#FF3EB5"/>
</g>
<defs>
<clipPath id="clip0_1755_19">
<rect width="62" height="39" fill="white"/>
</clipPath>
</defs>
</svg>
