<svg width="60" height="45" viewBox="0 0 60 45" fill="none" xmlns="http://www.w3.org/2000/svg">
<g clip-path="url(#clip0_1652_755)">
<path fill-rule="evenodd" clip-rule="evenodd" d="M50.4149 0H9.58506C4.29461 0 0 4.02898 0 8.99221V36.0078C0 40.971 4.29461 45 9.58506 45H50.3942C55.6846 45 59.9792 40.971 59.9792 36.0078V8.99221C59.9792 4.02898 55.6846 0 50.3942 0H50.4149ZM50.4149 2.9974C53.9419 2.9974 56.805 5.68339 56.805 8.99221V13.0601H3.19502V8.99221C3.19502 5.68339 6.05809 2.9974 9.58506 2.9974H50.3942H50.4149ZM3.19502 36.0078C3.19502 39.3166 6.05809 42.0026 9.58506 42.0026H50.3942C53.9212 42.0026 56.7842 39.3166 56.7842 36.0078V16.9529H3.19502V36.0078ZM47.1992 32.3486L46.6597 32.8352H46.5975L46.1411 32.4459C45.7261 32.0567 45.1037 31.9204 44.5436 32.1151C43.9212 32.2902 43.4855 32.8157 43.4647 33.4386C43.4232 33.8279 43.5685 34.2171 43.8382 34.5285L44.6058 35.3655L46.473 37.0783C46.473 37.0783 46.6183 37.2145 46.6597 37.2145C46.7012 37.2145 46.7635 37.1756 46.8465 37.0783L49.2531 34.8205C49.3568 34.7426 49.4606 34.6259 49.5436 34.5285C50.0622 33.8473 49.8963 32.8741 49.1701 32.3875C49.1701 32.3875 49.1494 32.3875 49.1286 32.3681C48.5477 31.9788 47.7801 31.9788 47.1992 32.3681V32.3486Z" fill="#868181"/>
</g>
<defs>
<clipPath id="clip0_1652_755">
<rect width="60" height="45" fill="white"/>
</clipPath>
</defs>
</svg>
