<svg width="73" height="44" viewBox="0 0 73 44" fill="none" xmlns="http://www.w3.org/2000/svg">
<g clip-path="url(#clip0_1652_757)">
<path d="M37.0071 3.38609V33.8417H27.4337C27.9134 34.8748 28.1637 36.0226 28.1637 37.2278H42.1797C42.2214 36.0226 42.5134 34.8748 43.0348 33.8417H40.6362V10.1583H48.7497V24.64H62.5362V33.8609H60.1377C60.6591 34.9322 60.9511 36.08 60.9928 37.247H66.1862V23.7026L53.6719 6.77217H40.6362V0H0.50708V5.06956H4.15708V3.38609H37.0071ZM50.7937 22.7461V10.1583H51.7948L61.1597 22.7461H50.7937ZM9.35051 37.2278C9.35051 36.0226 9.6008 34.8748 10.0805 33.8417H4.15708V25.3861H0.50708V37.2278H9.35051Z" fill="#868181"/>
<path d="M28.1572 7.96231L28.7829 7.42666C29.4295 6.98666 30.3264 6.98666 30.9729 7.42666C31.3901 7.69448 31.6821 8.09622 31.7655 8.55535C31.8489 9.01448 31.7447 9.49274 31.4527 9.87535C31.3692 10.0093 31.2441 10.124 31.1189 10.2197L28.3867 12.764C28.2824 12.8597 28.2198 12.9171 28.1781 12.9171C28.1155 12.9171 28.0738 12.8597 27.9695 12.764L25.8421 10.8319L24.9661 9.89448C24.6115 9.55014 24.4655 9.07187 24.5281 8.61274C24.5281 8.2684 24.6741 7.94318 24.8827 7.67535C25.1121 7.40753 25.4041 7.21622 25.7587 7.12057C26.3844 6.89101 27.1144 7.04405 27.5941 7.48405L28.1155 7.92405C28.1155 7.92405 28.1781 8.00057 28.1989 8.00057L28.1572 7.96231ZM13.1609 31.3014C16.0601 29.5032 19.9187 29.8667 22.3798 32.1432C24.8409 34.4388 25.2164 37.9971 23.2975 40.6945C22.5049 41.804 21.3578 42.6649 20.0229 43.1814C18.6881 43.698 17.2281 43.8319 15.8098 43.564C14.3915 43.2962 13.0984 42.6649 12.0764 41.7084C11.0544 40.7519 10.3661 39.5467 10.0741 38.2458C9.80294 36.9258 9.92808 35.5675 10.4912 34.324C11.0335 33.0997 11.9721 32.0284 13.1818 31.2823L13.1609 31.3014ZM19.2304 34.1136C17.7912 33.2145 15.8515 33.3867 14.6209 34.5345C13.1818 35.8736 13.2027 38.0353 14.6627 39.3554C14.9964 39.6614 15.3718 39.891 15.8098 40.0632C17.1655 40.5797 18.7507 40.2927 19.7935 39.3362C20.2941 38.858 20.6487 38.2649 20.7947 37.5953C20.9407 36.9449 20.8572 36.2562 20.5861 35.644C20.3149 35.0319 19.8352 34.4962 19.2512 34.1327L19.2304 34.1136ZM-8.34277 9.091H6.25723V7.21622H-8.34277V9.091ZM8.63494 15.8632H-4.69277V13.9884H8.63494V15.8632ZM-8.30106 22.6354H6.29894V20.7606H-8.30106V22.6354ZM46.0109 31.3014C48.9101 29.5032 52.7687 29.8667 55.2298 32.1432C57.6909 34.4388 58.0664 37.9971 56.1267 40.6945C55.3341 41.804 54.1869 42.6649 52.8521 43.1814C51.5172 43.698 50.0572 43.8319 48.6389 43.564C47.2207 43.2962 45.9275 42.6649 44.9055 41.7084C43.8835 40.7519 43.1952 39.5467 42.9032 38.2458C42.6321 36.9258 42.7572 35.5675 43.3204 34.324C43.8627 33.0997 44.8012 32.0284 46.0109 31.2823V31.3014ZM52.0804 34.1136C50.6412 33.2145 48.7015 33.3867 47.4709 34.5345C46.0318 35.8736 46.0527 38.0353 47.5127 39.3554C47.8464 39.6614 48.2218 39.891 48.6598 40.0632C50.0155 40.5988 51.6007 40.2927 52.6435 39.3362C53.6864 38.3606 53.9992 36.9067 53.4361 35.644C53.1649 35.0319 52.6852 34.4962 52.0804 34.1327V34.1136Z" fill="#868181"/>
</g>
<defs>
<clipPath id="clip0_1652_757">
<rect width="73" height="44" fill="white"/>
</clipPath>
</defs>
</svg>
