<svg width="21" height="20" viewBox="0 0 21 20" fill="none" xmlns="http://www.w3.org/2000/svg">
<path d="M20.6836 13.9861C19.549 13.3445 18.5824 12.7016 17.877 12.2323C17.3385 11.8742 16.9495 11.6157 16.6644 11.4703C15.8671 11.0651 15.2626 11.3518 15.0326 11.5876C15.0039 11.6167 14.9781 11.6486 14.9557 11.6829C14.1279 12.9473 13.046 14.1573 12.7297 14.222C12.3641 14.164 10.6519 13.1734 8.94989 11.7306C7.2125 10.2567 6.11988 8.84563 5.95898 7.88495C7.07383 6.71714 7.47541 5.98258 7.47541 5.14659C7.47541 4.28493 5.50089 0.687449 5.1437 0.323792C4.78532 -0.0404358 3.97846 -0.0972532 2.74411 0.152705C2.62518 0.17702 2.51596 0.236537 2.43013 0.323792C2.28078 0.476004 -1.21436 4.10348 0.446736 8.50034C2.26998 13.3256 6.95021 18.9342 12.917 19.8454C13.5948 19.9487 14.2306 20 14.8261 20C18.3363 20 20.4081 18.2021 20.9916 14.6358C21.0125 14.5084 20.9941 14.3775 20.9389 14.2612C20.8838 14.1449 20.7946 14.0488 20.6836 13.9861Z" fill="#868181"/>
<path d="M13.2063 18.851C6.71226 17.8603 2.62115 11.3151 1.36498 7.99252C0.118701 4.69693 2.41725 1.75905 2.99438 1.09469C3.464 1.01363 3.95765 0.979637 4.16405 1.01232C4.59473 1.62203 6.08693 4.48951 6.15242 5.00561C6.15242 5.34377 6.04426 5.81392 4.75596 7.12512C4.69719 7.18486 4.65056 7.2558 4.61875 7.33388C4.58694 7.41196 4.57057 7.49565 4.57057 7.58017C4.57057 10.9505 11.5583 15.6258 12.796 15.6258C13.8723 15.6258 15.2756 13.7853 16.0745 12.5867C16.1208 12.5886 16.1987 12.6049 16.3093 12.6615C16.5373 12.7778 16.9321 13.0399 17.4314 13.3717C18.0907 13.8098 18.9663 14.3919 20 14.9947C19.5304 17.2927 18.2186 19.6172 13.2063 18.851Z" fill="#EDE6DC"/>
</svg>
