<svg width="25" height="25" viewBox="0 0 25 25" fill="none" xmlns="http://www.w3.org/2000/svg">
<g clip-path="url(#clip0_2143_720)">
<path d="M12.5001 0C5.60729 0 6.10352e-05 5.60723 6.10352e-05 12.5C6.10352e-05 14.8513 0.653625 17.134 1.89264 19.1162C1.39918 20.8463 0.507141 24.1183 0.497766 24.1525C0.475107 24.2356 0.47518 24.3232 0.497978 24.4062C0.520775 24.4892 0.56546 24.5645 0.627356 24.6244C0.689348 24.6839 0.766084 24.7259 0.849671 24.7459C0.933258 24.766 1.02068 24.7634 1.10294 24.7385L6.05758 23.214C7.9985 24.3831 10.2211 25 12.5001 25C19.3928 25 25.0001 19.3928 25.0001 12.5C25.0001 5.60723 19.3928 0 12.5001 0Z" fill="#868181"/>
<path d="M12.5 24.0384C10.3277 24.0384 8.21111 23.4313 6.37913 22.2829C6.32057 22.2464 6.25485 22.2228 6.18641 22.2138C6.11798 22.2048 6.04841 22.2106 5.9824 22.2308L1.65593 23.5623C1.9738 22.4022 2.5447 20.327 2.87615 19.173C2.89512 19.1068 2.89969 19.0373 2.88957 18.9692C2.87944 18.901 2.85486 18.8359 2.81746 18.7781C1.60334 16.9099 0.961548 14.739 0.961548 12.4999C0.961548 6.1377 6.13782 0.961426 12.5 0.961426C18.8622 0.961426 24.0385 6.1377 24.0385 12.4999C24.0385 18.8621 18.8622 24.0384 12.5 24.0384Z" fill="#EDE6DC"/>
<path d="M20.666 15.4452C19.7787 14.9522 19.0228 14.4583 18.4711 14.0977C18.05 13.8225 17.7457 13.624 17.5227 13.5122C16.8992 13.201 16.4264 13.4212 16.2466 13.6024C16.2241 13.6247 16.204 13.6492 16.1865 13.6756C15.539 14.647 14.693 15.5766 14.4456 15.6264C14.1596 15.5818 12.8206 14.8207 11.4896 13.7122C10.1308 12.5798 9.27633 11.4957 9.1505 10.7577C10.0224 9.86044 10.3364 9.29608 10.3364 8.6538C10.3364 7.99179 8.79224 5.22787 8.5129 4.94847C8.23262 4.66864 7.60162 4.62499 6.63629 4.81703C6.54328 4.83571 6.45785 4.88144 6.39073 4.94847C6.27393 5.06542 3.54054 7.85238 4.83961 11.2305C6.26549 14.9376 9.92569 19.2467 14.5921 19.9468C15.1222 20.0261 15.6194 20.0656 16.0851 20.0656C18.8303 20.0656 20.4505 18.6843 20.9069 15.9443C20.9232 15.8464 20.9088 15.7459 20.8657 15.6565C20.8226 15.5671 20.7528 15.4933 20.666 15.4452Z" fill="#868181"/>
<path d="M20.666 15.4452C19.7787 14.9522 19.0228 14.4583 18.4711 14.0977C18.05 13.8225 17.7457 13.624 17.5227 13.5122C16.8992 13.201 16.4264 13.4212 16.2466 13.6024C16.2241 13.6247 16.204 13.6492 16.1865 13.6756C15.539 14.647 14.693 15.5766 14.4456 15.6264C14.1596 15.5818 12.8206 14.8207 11.4896 13.7122C10.1308 12.5798 9.27633 11.4957 9.1505 10.7577C10.0224 9.86044 10.3364 9.29608 10.3364 8.6538C10.3364 7.99179 8.79224 5.22787 8.5129 4.94847C8.23262 4.66864 7.60162 4.62499 6.63629 4.81703C6.54328 4.83571 6.45785 4.88144 6.39073 4.94847C6.27393 5.06542 3.54054 7.85238 4.83961 11.2305C6.26549 14.9376 9.92569 19.2467 14.5921 19.9468C15.1222 20.0261 15.6194 20.0656 16.0851 20.0656C18.8303 20.0656 20.4505 18.6843 20.9069 15.9443C20.9232 15.8464 20.9088 15.7459 20.8657 15.6565C20.8226 15.5671 20.7528 15.4933 20.666 15.4452Z" fill="#868181"/>
<path d="M14.7348 18.9953C9.80037 18.2553 6.69178 13.3664 5.73729 10.8846C4.79031 8.42302 6.53685 6.22859 6.97537 5.73235C7.33221 5.6718 7.70731 5.64641 7.86414 5.67083C8.19139 6.12625 9.32523 8.26809 9.37498 8.65359C9.37498 8.90618 9.2928 9.25735 8.3139 10.2367C8.26924 10.2814 8.23381 10.3344 8.20964 10.3927C8.18547 10.451 8.17303 10.5135 8.17303 10.5766C8.17303 13.0941 13.4826 16.5863 14.423 16.5863C15.2409 16.5863 16.3072 15.2115 16.9142 14.3162C16.9494 14.3177 17.0086 14.3299 17.0926 14.3721C17.2659 14.459 17.5659 14.6548 17.9452 14.9026C18.4462 15.2299 19.1115 15.6646 19.897 16.1149C19.5402 17.8314 18.5434 19.5676 14.7348 18.9953Z" fill="#EDE6DC"/>
</g>
<defs>
<clipPath id="clip0_2143_720">
<rect width="25" height="25" fill="white"/>
</clipPath>
</defs>
</svg>
