<svg width="54" height="49" viewBox="0 0 54 49" fill="none" xmlns="http://www.w3.org/2000/svg">
<g clip-path="url(#clip0_1755_23)">
<path d="M26.9998 1.54406C27.8368 1.54406 28.5572 1.96868 28.9272 2.67895L35.2222 14.7612L35.6012 15.4892L36.4496 15.6058L50.5254 17.5436C51.3535 17.6579 52.0022 18.1759 52.2605 18.9294C52.5189 19.6829 52.316 20.4634 51.7169 21.017L41.5319 30.4219L40.9183 30.9885L41.0633 31.7884L43.4676 45.0681C43.5768 45.6718 43.413 46.2562 43.0071 46.7125C42.5923 47.1788 41.9729 47.4567 41.3494 47.4567C41.0071 47.4567 40.6705 47.3756 40.3486 47.2151L27.7593 40.9454L27.0006 40.5679L26.2418 40.9454L13.6526 47.2151C13.3306 47.3756 12.9932 47.4567 12.6517 47.4567C12.0283 47.4567 11.4089 47.1788 10.994 46.7125C10.5874 46.2562 10.4244 45.6718 10.5336 45.0681L12.9378 31.7884L13.0829 30.9885L12.4692 30.4219L2.28418 21.017C1.68516 20.4634 1.48141 19.6837 1.74058 18.9294C1.99893 18.1759 2.64767 17.6571 3.47571 17.5436L17.5515 15.6058L18.3999 15.4892L18.7789 14.7612L25.0739 2.67895C25.4439 1.96791 26.1652 1.54406 27.0014 1.54406M26.9998 0C25.6517 0 24.3037 0.66549 23.6102 1.9957L17.3152 14.078L3.23936 16.0158C0.139113 16.4427 -1.09887 20.0512 1.14482 22.1233L11.3298 31.5282L8.92558 44.8079C8.50668 47.1224 10.448 49.0015 12.6501 49.0015C13.2312 49.0015 13.831 48.8703 14.4097 48.5823L26.9989 42.3127L39.5882 48.5823C40.1668 48.8703 40.7667 49.0015 41.3478 49.0015C43.5499 49.0015 45.4912 47.1224 45.0723 44.8079L42.668 31.5282L52.8531 22.1233C55.0967 20.0519 53.8588 16.4427 50.7585 16.0158L36.6827 14.078L30.3893 1.9957C29.6958 0.66549 28.3478 0 26.9998 0Z" fill="#868181"/>
</g>
<defs>
<clipPath id="clip0_1755_23">
<rect width="54" height="49" fill="white"/>
</clipPath>
</defs>
</svg>
