<svg width="63" height="48" viewBox="0 0 63 48" fill="none" xmlns="http://www.w3.org/2000/svg">
<g clip-path="url(#clip0_1652_748)">
<path d="M37.5549 2.6901C32.5721 1.43203 27.283 1.76107 22.5248 3.63849C17.7666 5.49655 13.7844 8.78687 11.2113 13.0062L9.43468 12.0385C12.2528 7.45139 16.5617 3.87074 21.7488 1.85784C26.9154 -0.193773 32.6538 -0.54216 38.0655 0.812679C43.4771 2.16752 48.2557 5.18687 51.6865 9.38687C54.4026 12.7159 56.1384 16.6643 56.7511 20.8449L61.2642 14.032L63 15.0578L56.5673 24.774L55.8321 25.8772L54.9335 24.9095L47.0305 16.432L48.5621 15.1546L54.8314 21.8707C54.4026 17.7675 52.7485 13.8578 50.0937 10.5869C46.9488 6.73526 42.5378 3.96752 37.5549 2.70945V2.6901ZM8.06645 23.1095L7.16791 22.1417L6.43274 23.2449L0 32.9611L1.73582 33.9869L6.24895 27.174C6.84117 31.3546 8.59741 35.303 11.3135 38.632C14.7442 42.832 19.5229 45.832 24.9345 47.2062C30.3462 48.5611 36.0846 48.2127 41.2716 46.1804C46.4382 44.1675 50.7676 40.5869 53.5857 35.9998L51.8295 35.032C49.236 39.2514 45.2742 42.5417 40.516 44.3998C35.7579 46.2578 30.4687 46.5869 25.4859 45.3482C20.5031 44.0901 16.1125 41.3224 12.9472 37.4707C10.272 34.1998 8.63825 30.2901 8.2094 26.1869L14.4788 32.903L16.0104 31.6256L8.10729 23.1482L8.06645 23.1095Z" fill="#868181"/>
</g>
<defs>
<clipPath id="clip0_1652_748">
<rect width="63" height="48" fill="white"/>
</clipPath>
</defs>
</svg>
